<?xml version="1.0" encoding="utf-8"?>
<!-- Generator: Adobe Illustrator 15.1.0, SVG Export Plug-In . SVG Version: 6.00 Build 0)  -->
<!DOCTYPE svg PUBLIC "-//W3C//DTD SVG 1.1//EN" "http://www.w3.org/Graphics/SVG/1.1/DTD/svg11.dtd">
<svg version="1.1" id="Layer_1" xmlns="http://www.w3.org/2000/svg" xmlns:xlink="http://www.w3.org/1999/xlink" x="0px" y="0px"
	 width="130px" height="130px" viewBox="0 0 130 130" enable-background="new 0 0 130 130" xml:space="preserve">
<g>
	<path fill="#B3B3B3" d="M127.047,64.572c0,34.03-27.54,61.746-61.571,61.746S3.73,98.603,3.73,64.572
		c0-33.68,27.365-61.22,61.044-61.571h1.228C99.857,3.353,127.047,30.893,127.047,64.572z M30.919,86.148h19.296
		c2.28,0,4.21-0.176,6.14-0.526c1.754-0.526,3.508-1.228,4.736-2.28c1.228-0.877,2.28-1.93,3.157-3.333
		c1.228-2.104,1.93-4.386,1.93-6.841c0-2.456-0.702-4.562-1.754-6.315c-1.052-1.754-2.807-2.982-4.912-3.859
		c1.403-0.702,2.456-1.403,3.158-2.456c1.403-1.579,2.105-3.684,2.105-6.315c0-2.456-0.702-4.736-1.93-6.49
		c-2.28-2.982-5.964-4.561-11.227-4.561H30.919V86.148z M49.864,60.012h-9.122v-9.473h8.069c2.105,0,3.684,0.351,5.087,0.702
		c1.579,0.702,2.28,1.93,2.28,4.035c0,1.754-0.526,2.982-1.754,3.684S51.793,60.012,49.864,60.012z M54.25,77.904
		c-1.053,0.525-2.456,0.701-4.385,0.701h-9.122V67.203h9.297c1.754,0,3.333,0.176,4.21,0.702c1.929,0.877,2.807,2.456,2.807,4.561
		C57.056,75.098,56.179,77.026,54.25,77.904z M69.511,69.659c0,5.789,1.403,9.823,4.561,12.454
		c3.157,2.456,6.841,3.685,10.876,3.685c4.911,0,8.946-1.403,11.577-4.386c1.754-1.93,2.807-3.859,2.982-5.613h-8.245
		c-0.351,0.877-0.877,1.579-1.578,2.105c-1.229,0.877-2.632,1.402-4.562,1.402c-1.578,0-3.157-0.351-4.385-1.228
		c-1.93-1.228-3.157-3.333-3.157-6.49h22.453c0-2.631-0.176-4.561-0.352-5.964c-0.351-2.456-1.228-4.561-2.455-6.491
		c-1.404-2.105-3.158-3.508-5.263-4.561c-2.105-0.877-4.562-1.403-7.192-1.403c-4.561,0-8.244,1.403-11.051,4.21
		C70.914,60.362,69.511,64.397,69.511,69.659z M76.001,49.311h17.19v-4.385h-17.19V49.311z M91.613,66.326H77.755
		c0.351-1.929,1.053-3.508,2.105-4.736c1.228-1.228,2.807-1.754,4.911-1.754c1.754,0,3.333,0.526,4.736,1.579
		C90.735,62.643,91.438,64.222,91.613,66.326z"/>
</g>
</svg>
