<?xml version="1.0" encoding="utf-8"?>
<!-- Generator: Adobe Illustrator 15.1.0, SVG Export Plug-In . SVG Version: 6.00 Build 0)  -->
<!DOCTYPE svg PUBLIC "-//W3C//DTD SVG 1.1//EN" "http://www.w3.org/Graphics/SVG/1.1/DTD/svg11.dtd">
<svg version="1.1" id="Layer_1" xmlns="http://www.w3.org/2000/svg" xmlns:xlink="http://www.w3.org/1999/xlink" x="0px" y="0px"
	 width="490px" height="400px" viewBox="0 0 490 400" enable-background="new 0 0 490 400" xml:space="preserve">
<path fill="#FFFFFF" d="M346.031,50.859v-0.191c-30.21,0.198-59.519,10.967-82.612,30.404l-1.204,1.017l-2.658,2.771
	c13.763,16.002,23.899,34.325,30.007,53.966l12.961-13.511c12.294-9.925,27.658-15.423,43.507-15.613v0.193
	c38.975,0,70.685,31.74,70.685,70.715c0,38.976-31.71,70.749-70.685,70.749c-39.003,0-71.953-32.61-71.953-71.191h-0.42
	c0-70.351-58.178-129.5-129.69-129.5c-71.51,0-129.688,58.369-129.688,129.879c0,71.511,58.179,129.689,129.688,129.689v-0.019
	c30.208-0.197,59.519-10.966,82.611-30.403l1.206-1.016l2.658-2.771c-13.763-16.003-23.9-34.324-30.008-53.966l-12.96,13.513
	c-12.293,9.923-27.658,15.422-43.506,15.611c-38.975,0-70.685-31.759-70.685-70.733c0-38.976,31.71-70.78,70.685-70.78
	c38.977,0,70.686,31.916,70.686,70.496h0.419c0,72.622,58.746,130.196,130.958,130.196c71.51,0,129.688-58.242,129.688-129.753
	C475.72,109.1,417.541,50.859,346.031,50.859z"/>
<g>
	<path fill="#FFFFFF" d="M28.348,336.035c4.929,0,8.748,3.794,8.748,8.7c0,5.026-3.818,8.94-8.748,8.94
		c-4.93,0-8.772-3.914-8.772-8.94C19.575,339.829,23.418,336.035,28.348,336.035z M28.348,351.478c3.479,0,6.282-2.899,6.282-6.742
		c0-3.721-2.803-6.525-6.282-6.525c-3.48,0-6.308,2.805-6.308,6.525C22.04,348.578,24.867,351.478,28.348,351.478z"/>
	<path fill="#FFFFFF" d="M68.149,338.403h-5.848v-2.078H76.39v2.078h-5.848v14.984h-2.393V338.403z"/>
	<path fill="#FFFFFF" d="M110.414,348.48h-6.428l-1.692,4.907H99.83l6.137-17.062h2.514l6.138,17.062h-2.489L110.414,348.48z
		 M107.201,338.67c0,0-0.387,1.546-0.677,2.417l-1.91,5.412h5.172l-1.885-5.412c-0.29-0.871-0.653-2.417-0.653-2.417H107.201z"/>
	<path fill="#FFFFFF" d="M138.398,336.325h2.586l4.229,12.06c0.313,0.916,0.652,2.344,0.652,2.344h0.048
		c0,0,0.339-1.428,0.653-2.344l4.277-12.06h2.539l-6.283,17.062h-2.393L138.398,336.325z"/>
	<path fill="#FFFFFF" d="M180.011,336.325h2.393v17.062h-2.393V336.325z"/>
	<path fill="#FFFFFF" d="M218.821,336.035c4.929,0,8.748,3.794,8.748,8.7c0,5.026-3.819,8.94-8.748,8.94
		c-4.93,0-8.773-3.914-8.773-8.94C210.048,339.829,213.891,336.035,218.821,336.035z M218.821,351.478
		c3.479,0,6.283-2.899,6.283-6.742c0-3.721-2.804-6.525-6.283-6.525c-3.48,0-6.307,2.805-6.307,6.525
		C212.515,348.578,215.341,351.478,218.821,351.478z"/>
	<path fill="#FFFFFF" d="M255.214,336.325h6.235c3.116,0,5.364,2.103,5.364,5.341s-2.248,5.413-5.364,5.413h-3.842v6.309h-2.394
		V336.325z M261.062,345.001c2.055,0,3.312-1.281,3.312-3.335c0-2.055-1.257-3.263-3.288-3.263h-3.479v6.598H261.062z"/>
	<path fill="#FFFFFF" d="M294.049,336.325h5.221c1.787,0,2.536,0.146,3.189,0.387c1.738,0.652,2.875,2.368,2.875,4.616
		c0,2.175-1.209,4.012-3.069,4.616v0.047c0,0,0.194,0.218,0.508,0.774l3.625,6.622h-2.706l-3.601-6.792h-3.649v6.792h-2.393V336.325
		z M299.873,344.519c1.86,0,3.02-1.186,3.02-3.094c0-1.256-0.481-2.151-1.353-2.635c-0.459-0.241-1.016-0.387-2.343-0.387h-2.756
		v6.115H299.873z"/>
	<path fill="#FFFFFF" d="M333.221,350.897h2.467v2.49h-2.467V350.897z"/>
	<path fill="#FFFFFF" d="M370.848,336.035c4.107,0,6.21,2.248,6.21,2.248l-1.184,1.788c0,0-1.982-1.861-4.93-1.861
		c-3.818,0-6.309,2.901-6.309,6.525c0,3.649,2.54,6.742,6.334,6.742c3.213,0,5.267-2.223,5.267-2.223l1.281,1.715
		c0,0-2.345,2.706-6.621,2.706c-5.124,0-8.725-3.914-8.725-8.917C362.172,339.805,365.894,336.035,370.848,336.035z"/>
	<path fill="#FFFFFF" d="M412.437,336.035c4.931,0,8.748,3.794,8.748,8.7c0,5.026-3.817,8.94-8.748,8.94s-8.771-3.914-8.771-8.94
		C403.665,339.829,407.506,336.035,412.437,336.035z M412.437,351.478c3.479,0,6.284-2.899,6.284-6.742
		c0-3.721-2.805-6.525-6.284-6.525s-6.308,2.805-6.308,6.525C406.129,348.578,408.957,351.478,412.437,351.478z"/>
	<path fill="#FFFFFF" d="M449.676,336.325h2.514l3.914,9.232c0.387,0.941,0.847,2.295,0.847,2.295h0.049
		c0,0,0.458-1.354,0.846-2.295l3.914-9.232h2.514l1.378,17.062h-2.369l-0.846-10.755c-0.072-1.038-0.023-2.514-0.023-2.514h-0.049
		c0,0-0.508,1.571-0.919,2.514l-3.406,7.684h-2.127l-3.383-7.684c-0.388-0.918-0.917-2.562-0.917-2.562h-0.049
		c0,0,0.022,1.523-0.049,2.562l-0.822,10.755h-2.394L449.676,336.325z"/>
</g>
<g>
	<path fill="#FFFFFF" d="M37.201,336.035c4.929,0,8.747,3.794,8.747,8.7c0,5.026-3.818,8.94-8.747,8.94
		c-4.93,0-8.772-3.914-8.772-8.94C28.428,339.829,32.271,336.035,37.201,336.035z M37.201,351.478c3.479,0,6.282-2.899,6.282-6.742
		c0-3.721-2.802-6.525-6.282-6.525c-3.48,0-6.308,2.805-6.308,6.525C30.893,348.578,33.72,351.478,37.201,351.478z"/>
	<path fill="#FFFFFF" d="M77.002,338.403h-5.848v-2.078h14.088v2.078h-5.848v14.984h-2.393V338.403z"/>
	<path fill="#FFFFFF" d="M119.267,348.48h-6.427l-1.692,4.907h-2.464l6.136-17.062h2.514l6.138,17.062h-2.489L119.267,348.48z
		 M116.053,338.67c0,0-0.387,1.546-0.677,2.417l-1.91,5.412h5.173l-1.885-5.412c-0.29-0.871-0.653-2.417-0.653-2.417H116.053z"/>
	<path fill="#FFFFFF" d="M147.251,336.325h2.585l4.229,12.06c0.314,0.916,0.652,2.344,0.652,2.344h0.047
		c0,0,0.339-1.428,0.653-2.344l4.277-12.06h2.539l-6.283,17.062h-2.393L147.251,336.325z"/>
	<path fill="#FFFFFF" d="M188.864,336.325h2.392v17.062h-2.392V336.325z"/>
	<path fill="#FFFFFF" d="M227.674,336.035c4.929,0,8.747,3.794,8.747,8.7c0,5.026-3.818,8.94-8.747,8.94
		c-4.931,0-8.773-3.914-8.773-8.94C218.901,339.829,222.744,336.035,227.674,336.035z M227.674,351.478
		c3.479,0,6.283-2.899,6.283-6.742c0-3.721-2.804-6.525-6.283-6.525c-3.48,0-6.307,2.805-6.307,6.525
		C221.367,348.578,224.194,351.478,227.674,351.478z"/>
	<path fill="#FFFFFF" d="M264.066,336.325h6.235c3.117,0,5.364,2.103,5.364,5.341s-2.247,5.413-5.364,5.413h-3.842v6.309h-2.394
		V336.325z M269.916,345.001c2.054,0,3.311-1.281,3.311-3.335c0-2.055-1.257-3.263-3.287-3.263h-3.479v6.598H269.916z"/>
	<path fill="#FFFFFF" d="M302.901,336.325h5.221c1.787,0,2.536,0.146,3.19,0.387c1.738,0.652,2.874,2.368,2.874,4.616
		c0,2.175-1.208,4.012-3.068,4.616v0.047c0,0,0.194,0.218,0.507,0.774l3.626,6.622h-2.707l-3.6-6.792h-3.65v6.792h-2.393V336.325z
		 M308.727,344.519c1.859,0,3.02-1.186,3.02-3.094c0-1.256-0.482-2.151-1.354-2.635c-0.459-0.241-1.016-0.387-2.343-0.387h-2.756
		v6.115H308.727z"/>
	<path fill="#FFFFFF" d="M342.074,350.897h2.467v2.49h-2.467V350.897z"/>
	<path fill="#FFFFFF" d="M379.7,336.035c4.107,0,6.21,2.248,6.21,2.248l-1.184,1.788c0,0-1.981-1.861-4.93-1.861
		c-3.818,0-6.308,2.901-6.308,6.525c0,3.649,2.539,6.742,6.333,6.742c3.213,0,5.267-2.223,5.267-2.223l1.281,1.715
		c0,0-2.345,2.706-6.621,2.706c-5.124,0-8.724-3.914-8.724-8.917C371.025,339.805,374.746,336.035,379.7,336.035z"/>
	<path fill="#FFFFFF" d="M421.289,336.035c4.931,0,8.748,3.794,8.748,8.7c0,5.026-3.817,8.94-8.748,8.94
		c-4.93,0-8.771-3.914-8.771-8.94C412.519,339.829,416.359,336.035,421.289,336.035z M421.289,351.478
		c3.479,0,6.284-2.899,6.284-6.742c0-3.721-2.805-6.525-6.284-6.525s-6.307,2.805-6.307,6.525
		C414.982,348.578,417.81,351.478,421.289,351.478z"/>
	<path fill="#FFFFFF" d="M458.528,336.325h2.514l3.914,9.232c0.387,0.941,0.847,2.295,0.847,2.295h0.049
		c0,0,0.458-1.354,0.846-2.295l3.914-9.232h2.514l1.378,17.062h-2.368l-0.846-10.755c-0.073-1.038-0.024-2.514-0.024-2.514h-0.049
		c0,0-0.508,1.571-0.919,2.514l-3.406,7.684h-2.127l-3.383-7.684c-0.388-0.918-0.917-2.562-0.917-2.562h-0.049
		c0,0,0.022,1.523-0.049,2.562l-0.821,10.755h-2.395L458.528,336.325z"/>
</g>
</svg>
