<?xml version="1.0" encoding="utf-8"?>
<!-- Generator: Adobe Illustrator 15.1.0, SVG Export Plug-In . SVG Version: 6.00 Build 0)  -->
<!DOCTYPE svg PUBLIC "-//W3C//DTD SVG 1.1//EN" "http://www.w3.org/Graphics/SVG/1.1/DTD/svg11.dtd">
<svg version="1.1" id="Layer_1" xmlns="http://www.w3.org/2000/svg" xmlns:xlink="http://www.w3.org/1999/xlink" x="0px" y="0px"
	 width="200px" height="50px" viewBox="0 0 200 50" enable-background="new 0 0 200 50" xml:space="preserve">
<g>
	<path fill="#ABABAC" d="M27.694,8.741V8.726c-2.522,0.017-4.97,0.917-6.897,2.538l-0.099,0.085l-0.222,0.231
		c1.149,1.336,1.996,2.865,2.505,4.505l1.083-1.127c1.026-0.828,2.309-1.288,3.633-1.304v0.016c3.252,0,5.9,2.652,5.9,5.904
		c0,3.254-2.648,5.904-5.9,5.904c-3.257,0-6.007-2.719-6.007-5.941h-0.035c0-5.873-4.858-10.811-10.827-10.811
		C4.856,8.726,0,13.599,0,19.569c0,5.97,4.856,10.826,10.826,10.826v-0.002c2.521-0.018,4.969-0.916,6.896-2.539l0.101-0.084
		l0.222-0.23c-1.149-1.336-1.996-2.865-2.505-4.506l-1.082,1.128c-1.027,0.828-2.31,1.287-3.632,1.304c-3.254,0-5.9-2.653-5.9-5.907
		c0-3.253,2.646-5.908,5.9-5.908c3.253,0,5.9,2.665,5.9,5.885h0.035c0,6.062,4.905,10.869,10.933,10.869
		c5.97,0,10.826-4.861,10.826-10.833C38.52,13.604,33.664,8.741,27.694,8.741z"/>
</g>
<g>
	<g>
		<path fill="#ABABAC" d="M58.413,8.883L58.413,8.883c-1.78-0.002-3.789,0.481-5.438,1.434c-1.651,0.951-3.003,2.289-3.955,3.964
			c-0.955,1.679-1.452,3.522-1.452,5.48c-0.008,2.933,1.061,5.409,3.149,7.471c2.082,2.072,4.71,3.017,7.723,3.017h0.033
			c2.965,0,5.574-0.959,7.638-3.034c2.085-2.071,3.159-4.628,3.148-7.6c0.011-2.995-1.003-5.589-3.095-7.643
			C64.082,9.902,61.081,8.876,58.413,8.883z M64.709,23.396c-0.637,1.118-1.501,1.979-2.639,2.628
			c-1.139,0.645-2.354,0.964-3.701,0.967c-2.024-0.01-3.664-0.684-5.101-2.098c-1.423-1.422-2.104-3.07-2.112-5.138
			c0.001-1.4,0.318-2.629,0.955-3.745c0.642-1.119,1.513-1.993,2.661-2.659c1.148-0.665,2.329-0.986,3.599-0.987
			c1.295,0.001,2.501,0.323,3.667,0.989c1.167,0.669,2.041,1.534,2.677,2.627c0.629,1.093,0.945,2.301,0.946,3.682
			C65.659,21.055,65.342,22.279,64.709,23.396z"/>
	</g>
	<g>
		<polygon fill="#ABABAC" points="77.819,13.763 84.159,13.763 84.159,28.979 87.962,28.979 87.962,13.763 94.302,13.763 
			94.302,9.959 77.819,9.959 		"/>
	</g>
	<g>
		<polygon fill="#ABABAC" points="102.018,28.979 106.079,28.979 111.832,16.796 117.606,28.979 121.669,28.979 111.829,8.381 		"/>
	</g>
	<g>
		<polygon fill="#ABABAC" points="141.001,22.142 135.247,9.959 131.187,9.959 140.998,30.555 150.839,9.959 146.778,9.959 		"/>
	</g>
	<g>
		<rect x="161.507" y="9.959" fill="#ABABAC" width="3.805" height="19.021"/>
	</g>
	<g>
		<path fill="#ABABAC" d="M196.843,12c-2.085-2.07-4.753-3.123-7.818-3.116l0,0c-1.915-0.001-3.725,0.481-5.372,1.433
			c-1.651,0.952-2.974,2.291-3.925,3.966c-0.954,1.678-1.437,3.521-1.435,5.479c-0.01,2.933,1.07,5.409,3.155,7.471
			c2.08,2.072,4.72,3.017,7.731,3.017h0.033c2.966,0,5.574-0.959,7.64-3.034c2.084-2.071,3.155-4.628,3.147-7.6
			C200.01,16.62,198.934,14.055,196.843,12z M195.421,23.331c-0.627,1.1-1.49,1.964-2.608,2.599
			c-1.116,0.632-2.325,0.949-3.638,0.949c-1.97,0-3.633-0.685-5.029-2.065c-1.392-1.382-2.083-3.061-2.086-5.067
			c0-1.355,0.315-2.578,0.944-3.677c0.629-1.1,1.5-1.972,2.619-2.621s2.3-0.974,3.55-0.974c1.273,0,2.473,0.324,3.611,0.975
			c1.134,0.65,2.01,1.512,2.637,2.593c0.621,1.079,0.934,2.284,0.934,3.622C196.355,21.015,196.043,22.232,195.421,23.331z"/>
	</g>
</g>
<g>
	<path fill="#ABABAC" d="M4.229,34.72c1.608,0,2.431,0.882,2.431,0.882l-0.464,0.699c0,0-0.775-0.728-1.93-0.728
		c-1.495,0-2.47,1.133-2.47,2.551c0,1.431,0.992,2.64,2.48,2.64c1.257,0,2.061-0.87,2.061-0.87l0.502,0.672
		c0,0-0.916,1.061-2.591,1.061c-2.007,0-3.416-1.534-3.416-3.492C0.832,36.196,2.29,34.72,4.229,34.72z"/>
	<path fill="#ABABAC" d="M16.627,34.834h2.044c0.7,0,0.993,0.054,1.251,0.15c0.682,0.254,1.125,0.929,1.125,1.808
		c0,0.853-0.473,1.571-1.202,1.809v0.019c0,0,0.078,0.084,0.201,0.303l1.417,2.593h-1.059l-1.409-2.658h-1.428v2.658h-0.939V34.834z
		 M18.907,38.043c0.729,0,1.185-0.466,1.185-1.212c0-0.491-0.188-0.842-0.532-1.032c-0.179-0.094-0.397-0.151-0.916-0.151h-1.078
		v2.396H18.907z"/>
	<path fill="#ABABAC" d="M31.204,34.834h3.879v0.813H32.14v2.091h2.394v0.813H32.14V40.7h3.104v0.814h-4.041V34.834z"/>
	<path fill="#ABABAC" d="M48.447,39.592h-2.515l-0.66,1.921h-0.97l2.404-6.679h0.983l2.404,6.679H49.12L48.447,39.592z
		 M47.191,35.75c0,0-0.151,0.606-0.263,0.946l-0.751,2.12h2.027l-0.741-2.12c-0.111-0.34-0.253-0.946-0.253-0.946H47.191z"/>
	<path fill="#ABABAC" d="M60.612,35.647h-2.29v-0.813h5.516v0.813h-2.29v5.865h-0.936V35.647L60.612,35.647z"/>
	<path fill="#ABABAC" d="M73.307,34.834h0.936v6.679h-0.936V34.834z"/>
	<path fill="#ABABAC" d="M83.718,34.834h1.014l1.657,4.721c0.121,0.357,0.256,0.916,0.256,0.916h0.017c0,0,0.134-0.559,0.256-0.916
		l1.673-4.721h0.993l-2.461,6.679h-0.936L83.718,34.834z"/>
	<path fill="#ABABAC" d="M99.065,34.834h3.876v0.813h-2.943v2.091h2.397v0.813h-2.397V40.7h3.104v0.814h-4.037V34.834z"/>
	<path fill="#ABABAC" d="M123.938,34.834h2.213c2.044,0,3.387,1.221,3.387,3.33c0,2.118-1.343,3.349-3.387,3.349h-2.213V34.834z
		 M126.087,40.7c1.502,0,2.485-0.891,2.485-2.536c0-1.636-0.99-2.517-2.485-2.517h-1.212V40.7H126.087z"/>
	<path fill="#ABABAC" d="M139.451,34.834h3.879v0.813h-2.942v2.091h2.394v0.813h-2.394V40.7h3.101v0.814h-4.037V34.834z"/>
	<path fill="#ABABAC" d="M153.401,40.038c0,0,0.711,0.718,1.704,0.718c0.623,0,1.155-0.349,1.155-0.981
		c0-1.448-3.236-1.135-3.236-3.189c0-1.04,0.899-1.865,2.155-1.865c1.239,0,1.893,0.674,1.893,0.674l-0.425,0.774
		c0,0-0.612-0.576-1.468-0.576c-0.707,0-1.209,0.444-1.209,0.974c0,1.382,3.236,1.012,3.236,3.178c0,1.034-0.795,1.883-2.118,1.883
		c-1.421,0-2.216-0.879-2.216-0.879L153.401,40.038z"/>
	<path fill="#ABABAC" d="M167.062,34.834h0.936v6.679h-0.936V34.834z"/>
	<path fill="#ABABAC" d="M181.289,34.72c1.599,0,2.431,0.805,2.431,0.805l-0.472,0.7c0,0-0.751-0.651-1.886-0.651
		c-1.568,0-2.515,1.144-2.515,2.571c0,1.552,1.057,2.623,2.461,2.623c1.155,0,1.893-0.832,1.893-0.832v-0.967h-1.088v-0.814h1.939
		v3.358h-0.828v-0.415c0-0.142,0.01-0.285,0.01-0.285h-0.017c0,0-0.728,0.813-2.051,0.813c-1.798,0-3.282-1.418-3.282-3.462
		C177.881,36.235,179.339,34.72,181.289,34.72z"/>
	<path fill="#ABABAC" d="M194.03,34.834h0.926l2.973,4.342c0.243,0.359,0.556,0.965,0.556,0.965h0.021c0,0-0.067-0.596-0.067-0.965
		v-4.342h0.937v6.679h-0.916l-2.98-4.335c-0.249-0.367-0.559-0.973-0.559-0.973h-0.021c0,0,0.067,0.598,0.067,0.973v4.335h-0.936
		V34.834L194.03,34.834z"/>
</g>
</svg>
