<?xml version="1.0" encoding="utf-8"?>
<!-- Generator: Adobe Illustrator 15.1.0, SVG Export Plug-In . SVG Version: 6.00 Build 0)  -->
<!DOCTYPE svg PUBLIC "-//W3C//DTD SVG 1.1//EN" "http://www.w3.org/Graphics/SVG/1.1/DTD/svg11.dtd">
<svg version="1.1" id="Layer_1" xmlns="http://www.w3.org/2000/svg" xmlns:xlink="http://www.w3.org/1999/xlink" x="0px" y="0px"
	 width="130px" height="130px" viewBox="0 0 130 130" enable-background="new 0 0 130 130" xml:space="preserve">
<g>
	<path fill="#B3B3B3" d="M3.73,64.748c0-34.03,27.715-61.746,61.746-61.746s61.571,27.716,61.571,61.746
		c0,34.031-27.54,61.571-61.571,61.571S3.73,98.778,3.73,64.748z M43.9,68.432c0,12.805,9.648,23.154,21.401,23.154h14.91
		c3.684,0,6.666-2.981,6.666-6.666c0-3.858-2.807-6.665-6.49-6.665H65.651c-4.385,0-8.42-4.562-8.42-9.823v-3.684h22.979
		c3.684,0,6.666-2.982,6.666-6.666c0-3.859-2.982-6.841-6.666-6.841H57.231v-6.666c0-3.684-2.807-6.666-6.666-6.666
		c-3.684,0-6.666,2.982-6.666,6.666V68.432z"/>
</g>
</svg>
