<?xml version="1.0" encoding="utf-8"?>
<!-- Generator: Adobe Illustrator 15.1.0, SVG Export Plug-In . SVG Version: 6.00 Build 0)  -->
<!DOCTYPE svg PUBLIC "-//W3C//DTD SVG 1.1//EN" "http://www.w3.org/Graphics/SVG/1.1/DTD/svg11.dtd">
<svg version="1.1" id="Layer_1" xmlns="http://www.w3.org/2000/svg" xmlns:xlink="http://www.w3.org/1999/xlink" x="0px" y="0px"
	 width="130px" height="130px" viewBox="0 0 130 130" enable-background="new 0 0 130 130" xml:space="preserve">
<g>
	<path fill="#B3B3B3" d="M3.73,64.572c0-34.03,27.54-61.571,61.571-61.571c34.03,0,61.746,27.541,61.746,61.571
		s-27.716,61.746-61.746,61.746C31.27,126.318,3.73,98.603,3.73,64.572z M41.269,36.506c0,3.684,2.982,6.666,6.666,6.666
		s6.666-2.982,6.666-6.666s-2.982-6.841-6.666-6.841S41.269,32.822,41.269,36.506z M53.372,47.206H42.497V84.92h10.875V47.206z
		 M58.635,84.92h10.876V60.713c0,0,4.561-4.385,8.771-1.929c0.877,0.351,1.93,2.105,1.93,3.157V84.92h10.7V61.941
		c0-4.912-2.982-10.174-7.367-12.63c-4.035-2.105-9.823-2.456-14.033-0.351v-1.754H58.635V84.92z"/>
</g>
</svg>
