<?xml version="1.0" encoding="utf-8"?>
<!-- Generator: Adobe Illustrator 18.0.0, SVG Export Plug-In . SVG Version: 6.00 Build 0)  -->
<!DOCTYPE svg PUBLIC "-//W3C//DTD SVG 1.1//EN" "http://www.w3.org/Graphics/SVG/1.1/DTD/svg11.dtd">
<svg version="1.1" id="Layer_1" xmlns="http://www.w3.org/2000/svg" xmlns:xlink="http://www.w3.org/1999/xlink" x="0px" y="0px"
	 viewBox="0 0 200 50" enable-background="new 0 0 200 50" xml:space="preserve">
<g>
	<g>
		<path fill="#ABABAC" d="M14.9,4L14.9,4c-2.2,0-4.8,0.6-7,1.9c-2.2,1.3-3.9,3-5.1,5.3c-1.3,2.2-1.9,4.7-1.9,7.3
			c0,3.9,1.4,7,4.2,9.7c2.8,2.8,6.3,3.8,10.3,3.8h0c3.9,0,7.4-1.1,10.1-3.8c2.8-2.7,4.2-6,4.2-10c0-4-1.5-7.4-4.3-10.1
			C22.6,5.3,18.6,4,14.9,4z M23.6,23.2c-0.8,1.5-2,2.6-3.5,3.5C18.6,27.6,17,28,15.2,28c-2.7,0-4.9-0.9-6.8-2.8
			c-1.9-1.9-2.8-4.1-2.8-6.8c0-1.9,0.4-3.5,1.3-5c0.8-1.5,2-2.6,3.5-3.5C12,9,13.5,8.6,15.2,8.6c1.7,0,3.3,0.4,4.9,1.3
			c1.5,0.9,2.7,2,3.5,3.5c0.8,1.4,1.3,3.1,1.3,4.9C24.9,20.1,24.5,21.7,23.6,23.2z"/>
		<g>
			<polygon fill="#ABABAC" points="75.4,30.7 70.2,30.7 82.1,5.5 87.4,5.5 			"/>
		</g>
		<rect x="47" y="6.9" fill="#ABABAC" width="5" height="24"/>
		<circle fill="#ABABAC" cx="100.1" cy="18.1" r="2.6"/>
		<path fill="#ABABAC" d="M185.7,32.4L185.7,32.4c2.2,0,4.7-0.6,6.9-1.9c2.2-1.3,3.8-3,5.1-5.3c1.3-2.2,1.8-4.7,1.8-7.3
			c0-3.9-1.4-7.3-4.2-10c-2.8-2.8-6.3-4.1-10.3-4.1h0c-3.9,0-7.4,1.4-10.1,4.1c-2.8,2.7-4.2,6.2-4.2,10.1c0,4,1.7,7.4,4.4,10.2
			C177.8,31,182,32.4,185.7,32.4z M176.7,13.2c0.8-1.5,2-2.6,3.5-3.5c1.5-0.9,3.1-1.3,4.9-1.3c2.7,0,4.9,0.9,6.8,2.8
			c1.9,1.9,2.8,4.1,2.8,6.8c0,1.9-0.4,3.5-1.3,5c-0.8,1.5-2,2.6-3.5,3.5c-1.5,0.9-3.1,1.3-4.8,1.3c-1.7,0-3.3-0.4-4.9-1.3
			c-1.5-0.9-2.7-2-3.5-3.5c-0.8-1.4-1.3-3.1-1.3-4.9C175.4,16.3,175.8,14.7,176.7,13.2z"/>
		<g>
			<polygon fill="#ABABAC" points="124.9,5.7 130.2,5.7 118.2,30.9 113,30.9 			"/>
		</g>
		<rect x="149" y="4.9" fill="#ABABAC" width="5" height="26"/>
	</g>
	<g>
		<g>
			<path fill="#ABABAC" d="M7.4,35.4c1.3,0,2.4,1,2.4,2.3c0,1.4-1,2.4-2.4,2.4S5,39.1,5,37.8C5,36.4,6,35.4,7.4,35.4z M7.4,39.6
				c0.9,0,1.7-0.8,1.7-1.8c0-1-0.8-1.8-1.7-1.8s-1.7,0.8-1.7,1.8C5.7,38.8,6.4,39.6,7.4,39.6z"/>
			<path fill="#ABABAC" d="M22.3,36.1h-1.6v-0.6h3.8v0.6h-1.6v4h-0.6V36.1z"/>
			<path fill="#ABABAC" d="M37.9,38.8h-1.7l-0.5,1.3h-0.7l1.7-4.6h0.7l1.7,4.6h-0.7L37.9,38.8z M37,36.1c0,0-0.1,0.4-0.2,0.7
				l-0.5,1.5h1.4l-0.5-1.5C37.2,36.5,37.1,36.1,37,36.1L37,36.1z M37.2,34.4h0.7l-0.6,0.8h-0.5L37.2,34.4z"/>
			<path fill="#ABABAC" d="M49.7,35.5h0.7l1.1,3.2c0.1,0.2,0.2,0.6,0.2,0.6h0c0,0,0.1-0.4,0.2-0.6l1.2-3.2h0.7L52,40.1h-0.6
				L49.7,35.5z"/>
			<path fill="#ABABAC" d="M65.1,35.5h0.6v4.6h-0.6V35.5z"/>
			<path fill="#ABABAC" d="M79.8,35.4c1.3,0,2.4,1,2.4,2.3c0,1.4-1,2.4-2.4,2.4s-2.4-1.1-2.4-2.4C77.4,36.4,78.5,35.4,79.8,35.4z
				 M79.8,39.6c0.9,0,1.7-0.8,1.7-1.8c0-1-0.8-1.8-1.7-1.8s-1.7,0.8-1.7,1.8C78.1,38.8,78.8,39.6,79.8,39.6z"/>
			<path fill="#ABABAC" d="M106.2,35.5h1.4c0.5,0,0.7,0,0.9,0.1c0.5,0.2,0.8,0.6,0.8,1.2c0,0.6-0.3,1.1-0.8,1.2v0
				c0,0,0.1,0.1,0.1,0.2l1,1.8h-0.7l-1-1.8h-1v1.8h-0.6V35.5z M107.8,37.7c0.5,0,0.8-0.3,0.8-0.8c0-0.3-0.1-0.6-0.4-0.7
				c-0.1-0.1-0.3-0.1-0.6-0.1h-0.7v1.6H107.8z"/>
			<path fill="#ABABAC" d="M121.1,35.5h0.6v4.6h-0.6V35.5z"/>
			<path fill="#ABABAC" d="M133.7,35.5h1.6c0.8,0,1.3,0.4,1.3,1.2c0,0.4-0.2,0.8-0.6,1v0c0.5,0.1,0.8,0.6,0.8,1.1
				c0,0.9-0.7,1.3-1.5,1.3h-1.6V35.5z M135.4,37.4c0.4,0,0.7-0.3,0.7-0.7c0-0.4-0.2-0.7-0.7-0.7h-0.9v1.4H135.4z M135.4,39.5
				c0.5,0,0.8-0.3,0.8-0.8s-0.3-0.8-0.8-0.8h-1v1.6H135.4z"/>
			<path fill="#ABABAC" d="M148.6,35.5h2.7v0.6h-2v1.4h1.6v0.6h-1.6v1.5h2.1v0.6h-2.8V35.5z"/>
			<path fill="#ABABAC" d="M163.1,35.5h0.6v4.6h-0.6V35.5z"/>
			<path fill="#ABABAC" d="M175.7,35.5h1.4c0.5,0,0.7,0,0.9,0.1c0.5,0.2,0.8,0.6,0.8,1.2c0,0.6-0.3,1.1-0.8,1.2v0
				c0,0,0.1,0.1,0.1,0.2l1,1.8h-0.7l-1-1.8h-1v1.8h-0.6V35.5z M177.3,37.7c0.5,0,0.8-0.3,0.8-0.8c0-0.3-0.1-0.6-0.4-0.7
				c-0.1-0.1-0.3-0.1-0.6-0.1h-0.7v1.6H177.3z"/>
			<path fill="#ABABAC" d="M192.6,35.4c1.3,0,2.4,1,2.4,2.3c0,1.4-1,2.4-2.4,2.4c-1.3,0-2.4-1.1-2.4-2.4
				C190.3,36.4,191.3,35.4,192.6,35.4z M192.6,39.6c0.9,0,1.7-0.8,1.7-1.8c0-1-0.8-1.8-1.7-1.8c-0.9,0-1.7,0.8-1.7,1.8
				C190.9,38.8,191.7,39.6,192.6,39.6z"/>
		</g>
		<g>
			<path fill="#ABABAC" d="M14.9,43.3h1.2c1.1,0,1.8,0.6,1.8,1.8c0,1.1-0.7,1.8-1.8,1.8h-1.2V43.3z M16,46.4c0.8,0,1.3-0.5,1.3-1.3
				c0-0.9-0.5-1.3-1.3-1.3h-0.6v2.7H16z"/>
			<path fill="#ABABAC" d="M26.8,43.3h2v0.4h-1.6v1.1h1.3v0.4h-1.3v1.1H29v0.4h-2.1V43.3z"/>
			<path fill="#ABABAC" d="M37.9,46c0,0,0.4,0.4,0.9,0.4c0.3,0,0.6-0.2,0.6-0.5c0-0.8-1.7-0.6-1.7-1.7c0-0.5,0.5-1,1.1-1
				c0.7,0,1,0.4,1,0.4L39.6,44c0,0-0.3-0.3-0.8-0.3c-0.4,0-0.6,0.2-0.6,0.5c0,0.7,1.7,0.5,1.7,1.7c0,0.5-0.4,1-1.1,1
				c-0.7,0-1.2-0.5-1.2-0.5L37.9,46z"/>
			<path fill="#ABABAC" d="M48.9,43.3h0.5v3.5h-0.5V43.3z"/>
			<path fill="#ABABAC" d="M60.1,43.2c0.8,0,1.3,0.4,1.3,0.4L61.1,44c0,0-0.4-0.3-1-0.3c-0.8,0-1.3,0.6-1.3,1.4
				c0,0.8,0.6,1.4,1.3,1.4c0.6,0,1-0.4,1-0.4v-0.5h-0.6V45h1v1.8h-0.4v-0.2c0-0.1,0-0.1,0-0.1h0c0,0-0.4,0.4-1.1,0.4
				c-0.9,0-1.7-0.7-1.7-1.8C58.3,44,59.1,43.2,60.1,43.2z"/>
			<path fill="#ABABAC" d="M70.6,43.3h0.5l1.6,2.3c0.1,0.2,0.3,0.5,0.3,0.5h0c0,0,0-0.3,0-0.5v-2.3h0.5v3.5h-0.5l-1.6-2.3
				C71.2,44.3,71,44,71,44h0c0,0,0,0.3,0,0.5v2.3h-0.5V43.3z"/>
			<path fill="#ABABAC" d="M82.6,43.3h2v0.4h-1.6v1.1h1.3v0.4h-1.3v1.1h1.6v0.4h-2.1V43.3z"/>
			<path fill="#ABABAC" d="M93.7,43.3h1.1c0.4,0,0.5,0,0.7,0.1c0.4,0.1,0.6,0.5,0.6,1c0,0.4-0.2,0.8-0.6,1v0c0,0,0,0,0.1,0.2
				l0.7,1.4h-0.6l-0.7-1.4h-0.8v1.4h-0.5V43.3z M94.9,45c0.4,0,0.6-0.2,0.6-0.6c0-0.3-0.1-0.4-0.3-0.5c-0.1,0-0.2-0.1-0.5-0.1h-0.6
				V45H94.9z"/>
			<path fill="#ABABAC" d="M116.2,43.2c0.8,0,1.3,0.4,1.3,0.4l-0.2,0.4c0,0-0.4-0.3-1-0.3c-0.8,0-1.3,0.6-1.3,1.4
				c0,0.8,0.6,1.4,1.3,1.4c0.6,0,1-0.4,1-0.4v-0.5h-0.6V45h1v1.8h-0.4v-0.2c0-0.1,0-0.1,0-0.1h0c0,0-0.4,0.4-1.1,0.4
				c-0.9,0-1.7-0.7-1.7-1.8C114.4,44,115.1,43.2,116.2,43.2z"/>
			<path fill="#ABABAC" d="M126.6,43.3h1.1c0.4,0,0.5,0,0.7,0.1c0.4,0.1,0.6,0.5,0.6,1c0,0.4-0.2,0.8-0.6,1v0c0,0,0,0,0.1,0.2
				l0.7,1.4h-0.6l-0.7-1.4h-0.8v1.4h-0.5V43.3z M127.8,45c0.4,0,0.6-0.2,0.6-0.6c0-0.3-0.1-0.4-0.3-0.5c-0.1,0-0.2-0.1-0.5-0.1h-0.6
				V45H127.8z"/>
			<path fill="#ABABAC" d="M139.8,45.8h-1.3l-0.3,1h-0.5l1.3-3.5h0.5l1.3,3.5h-0.5L139.8,45.8z M139.1,43.8c0,0-0.1,0.3-0.1,0.5
				l-0.4,1.1h1.1l-0.4-1.1C139.2,44.1,139.1,43.8,139.1,43.8L139.1,43.8z M139.3,42.4h0.5l-0.5,0.6h-0.4L139.3,42.4z"/>
			<path fill="#ABABAC" d="M149.4,43.3h1.9v0.4h-1.4v1.2h1.2v0.4h-1.2v1.5h-0.5V43.3z"/>
			<path fill="#ABABAC" d="M160.2,43.3h0.5v3.5h-0.5V43.3z"/>
			<path fill="#ABABAC" d="M171.5,43.2c0.8,0,1.3,0.5,1.3,0.5l-0.2,0.4c0,0-0.4-0.4-1-0.4c-0.8,0-1.3,0.6-1.3,1.3
				c0,0.8,0.5,1.4,1.3,1.4c0.7,0,1.1-0.5,1.1-0.5l0.3,0.4c0,0-0.5,0.6-1.4,0.6c-1.1,0-1.8-0.8-1.8-1.8
				C169.7,44,170.4,43.2,171.5,43.2z"/>
			<path fill="#ABABAC" d="M183.3,43.2c1,0,1.8,0.8,1.8,1.8c0,1-0.8,1.8-1.8,1.8c-1,0-1.8-0.8-1.8-1.8
				C181.5,44,182.3,43.2,183.3,43.2z M183.3,46.4c0.7,0,1.3-0.6,1.3-1.4c0-0.8-0.6-1.3-1.3-1.3c-0.7,0-1.3,0.6-1.3,1.3
				C182,45.8,182.6,46.4,183.3,46.4z"/>
		</g>
	</g>
</g>
</svg>
